<?xml version="1.0" standalone="no"?><!DOCTYPE svg PUBLIC "-//W3C//DTD SVG 1.1//EN" "http://www.w3.org/Graphics/SVG/1.1/DTD/svg11.dtd"><svg t="1675317065341" class="icon" viewBox="0 0 1024 1024" version="1.1" xmlns="http://www.w3.org/2000/svg" p-id="16099" width="20" height="20" xmlns:xlink="http://www.w3.org/1999/xlink"><path d="M249.7 927.7c-66.7 0-129.4-26-176.6-73.1C26 807.4 0 744.7 0 678V346C0 208.3 112 96.3 249.8 96.3h475.8c22.5 0 40.8 18.2 40.8 40.8s-18.2 40.8-40.8 40.8H249.8C157 177.8 81.5 253.3 81.5 346v332c0 44.9 17.5 87.2 49.3 119 31.8 31.8 74 49.3 118.9 49.3h524.5c92.8 0 168.2-75.5 168.2-168.2V364.6c0-7.7-2.8-15.1-8-20.8-11.5-12.7-31.2-13.8-43.9-2.3L633.6 573c-68.8 62-174.7 60-241.1-4.6L228.4 409.1c-16.1-15.7-16.5-41.5-0.8-57.6 15.7-16.2 41.5-16.5 57.6-0.8L449.3 510c35.7 34.7 92.7 35.8 129.8 2.5L836 281c46.1-41.5 117.5-37.8 159 8.3 18.7 20.8 29 47.5 29 75.4V678c0 137.7-112 249.7-249.7 249.7H249.7z" fill="#707070" p-id="16100"></path></svg>