<?xml version="1.0" standalone="no"?><!DOCTYPE svg PUBLIC "-//W3C//DTD SVG 1.1//EN" "http://www.w3.org/Graphics/SVG/1.1/DTD/svg11.dtd">
<svg t="1680613645509" class="icon" viewBox="0 0 1024 1024" version="1.1" xmlns="http://www.w3.org/2000/svg" p-id="3654" width="48"
     height="48">
    <path d="M375.466667 716.8c-28.444444 0-56.888889-17.066667-68.266667-45.511111l-56.888889-125.155556c-5.688889-5.688889-11.377778-5.688889-17.066667-11.377777l-136.533333-17.066667c-28.444444-5.688889-56.888889-28.444444-62.577778-56.888889-11.377778-28.444444 0-56.888889 22.755556-79.644444L153.6 284.444444c5.688889-5.688889 5.688889-11.377778 5.688889-17.066666l-22.755556-136.533334c-5.688889-28.444444 11.377778-56.888889 34.133334-73.955555 22.755556-17.066667 56.888889-17.066667 85.333333-5.688889L375.466667 113.777778c5.688889 5.688889 11.377778 5.688889 22.755555 0L517.688889 51.2c28.444444-11.377778 56.888889-11.377778 85.333333 5.688889 22.755556 17.066667 34.133333 45.511111 28.444445 79.644444l-22.755556 136.533334c0 5.688889 0 11.377778 5.688889 17.066666l96.711111 96.711111c22.755556 22.755556 28.444444 51.2 17.066667 79.644445s-34.133333 51.2-62.577778 51.2l-142.222222 22.755555c-5.688889 0-11.377778 5.688889-17.066667 11.377778l-62.577778 119.466667c-11.377778 28.444444-34.133333 45.511111-68.266666 45.511111zM216.177778 96.711111c-5.688889 0-11.377778 0-11.377778 5.688889-5.688889 0-11.377778 11.377778-11.377778 22.755556l22.755556 136.533333c5.688889 22.755556-5.688889 45.511111-22.755556 68.266667L91.022222 420.977778c-5.688889 11.377778-5.688889 17.066667-5.688889 22.755555 0 5.688889 5.688889 11.377778 17.066667 17.066667l136.533333 22.755556c22.755556 5.688889 45.511111 22.755556 56.888889 45.511111l56.888889 125.155555c5.688889 11.377778 17.066667 11.377778 17.066667 11.377778 5.688889 0 11.377778 0 17.066666-11.377778l62.577778-119.466666c11.377778-22.755556 34.133333-39.822222 56.888889-39.822223l136.533333-17.066666c11.377778 0 17.066667-11.377778 17.066667-17.066667 0-5.688889 5.688889-11.377778-5.688889-22.755556L568.888889 329.955556c-17.066667-17.066667-28.444444-39.822222-22.755556-68.266667l22.755556-136.533333c0-11.377778-5.688889-17.066667-5.688889-22.755556-5.688889 0-11.377778-5.688889-22.755556 0L420.977778 164.977778c-22.755556 11.377778-51.2 11.377778-73.955556 0L227.555556 102.4c-5.688889-5.688889-11.377778-5.688889-11.377778-5.688889zM864.711111 932.977778c-5.688889 0-17.066667 0-22.755555-5.688889L568.888889 648.533333c-11.377778-11.377778-11.377778-28.444444 0-39.822222s28.444444-11.377778 39.822222 0l278.755556 278.755556c11.377778 11.377778 11.377778 28.444444 0 39.822222-5.688889 5.688889-11.377778 5.688889-22.755556 5.688889z"
          fill="#9E9B9A" p-id="3655"></path>
</svg>
