<?xml version="1.0" standalone="no"?><!DOCTYPE svg PUBLIC "-//W3C//DTD SVG 1.1//EN" "http://www.w3.org/Graphics/SVG/1.1/DTD/svg11.dtd"><svg t="1675316864999" class="icon" viewBox="0 0 1024 1024" version="1.1" xmlns="http://www.w3.org/2000/svg" p-id="1080" xmlns:xlink="http://www.w3.org/1999/xlink" width="200" height="200"><path d="M512 204.109395a187.534884 187.534884 0 0 1 100.780651 345.730977C720.848372 590.586047 797.767442 694.986419 797.767442 817.318698a23.813953 23.813953 0 0 1-47.627907 0c0-131.500651-106.61507-238.139535-238.139535-238.139535s-238.139535 106.638884-238.139535 238.139535a23.813953 23.813953 0 0 1-47.627907 0c0-122.332279 76.895256-226.732651 184.986791-267.478326A187.534884 187.534884 0 0 1 512 204.133209z m0 47.627907a139.906977 139.906977 0 1 0 0 279.813954 139.906977 139.906977 0 0 0 0-279.813954z" fill="#333333" p-id="1081"></path></svg>