<?xml version="1.0" standalone="no"?><!DOCTYPE svg PUBLIC "-//W3C//DTD SVG 1.1//EN" "http://www.w3.org/Graphics/SVG/1.1/DTD/svg11.dtd"><svg t="1675317014623" class="icon" viewBox="0 0 1024 1024" version="1.1" xmlns="http://www.w3.org/2000/svg" p-id="2093" xmlns:xlink="http://www.w3.org/1999/xlink" width="200" height="200"><path d="M512 198.441674a187.534884 187.534884 0 0 1 100.780651 345.730977C720.848372 584.894512 797.767442 689.294884 797.767442 811.650977a23.813953 23.813953 0 0 1-47.627907 0c0-122.522791-92.541023-223.446326-211.539349-236.66307L559.627907 722.348651l-49.247256 47.627907-46.008558-47.627907 21.051535-147.360744C366.401488 588.204651 273.860465 689.128186 273.860465 811.650977a23.813953 23.813953 0 0 1-47.627907 0c0-122.356093 76.895256-226.732651 184.986791-267.478326A187.534884 187.534884 0 0 1 512 198.465488z m0 47.627907a139.906977 139.906977 0 1 0 0 279.813954 139.906977 139.906977 0 0 0 0-279.813954z" fill="#333333" p-id="2094"></path></svg>