<?xml version="1.0" standalone="no"?><!DOCTYPE svg PUBLIC "-//W3C//DTD SVG 1.1//EN" "http://www.w3.org/Graphics/SVG/1.1/DTD/svg11.dtd">
<svg t="1675316979021" class="icon" viewBox="0 0 1024 1024" version="1.1" xmlns="http://www.w3.org/2000/svg" p-id="1803"
     width="200" height="200">
    <path d="M726.325581 184.55814a71.44186 71.44186 0 0 1 71.441861 71.44186v545.887256a71.44186 71.44186 0 0 1-71.441861 71.44186H297.674419a71.44186 71.44186 0 0 1-71.441861-71.44186V256a71.44186 71.44186 0 0 1 71.441861-71.44186z m0 47.627907H297.674419a23.813953 23.813953 0 0 0-23.813954 23.813953v545.887256a23.813953 23.813953 0 0 0 23.813954 23.813953h428.651162a23.813953 23.813953 0 0 0 23.813954-23.813953V256a23.813953 23.813953 0 0 0-23.813954-23.813953z m-86.087441 446.987906a23.813953 23.813953 0 0 1 2.762418 47.46121l-2.762418 0.142884h-256.47628a23.813953 23.813953 0 0 1-2.762418-47.46121l2.762418-0.166697h256.47628z m0-109.925209a23.813953 23.813953 0 0 1 2.762418 47.461209l-2.762418 0.166698h-256.47628a23.813953 23.813953 0 0 1-2.762418-47.461209l2.762418-0.166698h256.47628z m-122.975256-234.734139a11.906977 11.906977 0 0 1 5.405767 5.405767l18.860651 38.197581a11.906977 11.906977 0 0 0 8.977861 6.525024l42.150697 6.120186a11.906977 11.906977 0 0 1 6.596466 20.313302l-30.505675 29.719814a11.906977 11.906977 0 0 0-3.429209 10.549581l7.215628 41.984a11.906977 11.906977 0 0 1-17.28893 12.549954l-37.697489-19.813209a11.906977 11.906977 0 0 0-11.097302 0l-37.697489 19.813209a11.906977 11.906977 0 0 1-17.28893-12.549954l7.215628-41.984a11.906977 11.906977 0 0 0-3.429209-10.549581l-30.505675-29.719814a11.906977 11.906977 0 0 1 6.596466-20.313302l42.150697-6.120186a11.906977 11.906977 0 0 0 8.977861-6.525024l18.860651-38.197581a11.906977 11.906977 0 0 1 15.955349-5.405767z"
          fill="#333333" p-id="1804"></path>
</svg>
