<?xml version="1.0" standalone="no"?><!DOCTYPE svg PUBLIC "-//W3C//DTD SVG 1.1//EN" "http://www.w3.org/Graphics/SVG/1.1/DTD/svg11.dtd"><svg t="1675317052238" class="icon" viewBox="0 0 1024 1024" version="1.1" xmlns="http://www.w3.org/2000/svg" p-id="2383" xmlns:xlink="http://www.w3.org/1999/xlink" width="200" height="200"><path d="M561.590857 195.047619a48.761905 48.761905 0 0 1 48.761905 48.761905v126.366476c1.657905-0.170667 3.34019-0.24381 5.046857-0.24381h99.230476a48.761905 48.761905 0 0 1 48.761905 48.761905L763.367619 738.986667H828.952381a24.380952 24.380952 0 0 1 2.852571 48.615619L828.952381 787.748571H195.047619a24.380952 24.380952 0 0 1-2.852571-48.591238L195.047619 738.986667h65.560381V243.809524a48.761905 48.761905 0 0 1 48.761905-48.761905h252.220952z m0 48.761905H309.394286l-0.024381 492.641524h252.220952V243.809524z m153.014857 174.86019h-99.206095v317.781334h99.206095V418.669714zM512 509.488762a24.380952 24.380952 0 0 1 2.852571 48.591238l-2.852571 0.170667h-153.014857a24.380952 24.380952 0 0 1-2.828191-48.615619l2.828191-0.146286H512z m0-87.454476a24.380952 24.380952 0 0 1 2.852571 48.615619L512 470.79619h-153.014857a24.380952 24.380952 0 0 1-2.828191-48.591238l2.828191-0.170666H512z m0-87.430096a24.380952 24.380952 0 0 1 2.852571 48.591239l-2.852571 0.170666h-153.014857a24.380952 24.380952 0 0 1-2.828191-48.591238l2.828191-0.170667H512z" fill="#333333" p-id="2384"></path></svg>