<?xml version="1.0" standalone="no"?><!DOCTYPE svg PUBLIC "-//W3C//DTD SVG 1.1//EN" "http://www.w3.org/Graphics/SVG/1.1/DTD/svg11.dtd">
<svg t="1675316998372" class="icon" viewBox="0 0 1024 1024" version="1.1" xmlns="http://www.w3.org/2000/svg" p-id="1948"
     width="200" height="200">
    <path d="M743.619048 536.380952a85.333333 85.333333 0 0 1 24.380952 167.131429V731.428571H877.714286a48.761905 48.761905 0 0 1 48.64 45.104762L926.47619 780.190476v73.142857a48.761905 48.761905 0 0 1-48.761904 48.761905H609.52381a48.761905 48.761905 0 0 1-48.761905-48.761905v-73.142857a48.761905 48.761905 0 0 1 48.761905-48.761905h109.714285v-27.91619a85.382095 85.382095 0 0 1-60.830476-77.116952L658.285714 621.714286a85.333333 85.333333 0 0 1 85.333334-85.333334zM702.171429 170.666667a66.633143 66.633143 0 0 1 66.511238 62.585904l0.121904 4.047239v194.58438a24.380952 24.380952 0 0 1-48.591238 2.852572l-0.170666-2.852572v-194.56a17.871238 17.871238 0 0 0-15.433143-17.724952L702.171429 219.428571H237.29981a17.871238 17.871238 0 0 0-17.700572 15.457524l-0.170667 2.438095v549.376c0 9.020952 6.729143 16.530286 15.457524 17.700572l2.438095 0.170667h219.428572a24.380952 24.380952 0 0 1 2.82819 48.591238l-2.852571 0.170666h-219.428571a66.633143 66.633143 0 0 1-66.511239-62.585904L170.666667 786.70019V237.29981a66.633143 66.633143 0 0 1 62.585904-66.511239L237.29981 170.666667H702.171429zM877.714286 780.190476H609.52381v73.142857h268.190476v-73.142857z m-134.095238-195.047619a36.571429 36.571429 0 1 0 0 73.142857 36.571429 36.571429 0 0 0 0-73.142857z m-242.176-2.438095a24.380952 24.380952 0 0 1 2.82819 48.591238l-2.82819 0.170667h-190.171429a24.380952 24.380952 0 0 1-2.852571-48.591238l2.852571-0.170667h190.171429z m42.25219-126.780952a24.380952 24.380952 0 0 1 2.852572 48.591238l-2.852572 0.170666h-232.423619a24.380952 24.380952 0 0 1-2.852571-48.591238l2.852571-0.170666H543.695238z m84.528762-126.780953a24.380952 24.380952 0 0 1 2.82819 48.591238l-2.82819 0.170667h-316.952381a24.380952 24.380952 0 0 1-2.852571-48.591238l2.852571-0.170667h316.952381z"
          fill="#333333" p-id="1949"></path>
</svg>
