<?xml version="1.0" standalone="no"?><!DOCTYPE svg PUBLIC "-//W3C//DTD SVG 1.1//EN" "http://www.w3.org/Graphics/SVG/1.1/DTD/svg11.dtd"><svg t="1675317036150" class="icon" viewBox="0 0 1024 1024" version="1.1" xmlns="http://www.w3.org/2000/svg" p-id="2238" xmlns:xlink="http://www.w3.org/1999/xlink" width="200" height="200"><path d="M750.139535 782.812279l-94.589023 89.254698L559.627907 782.907535V529.860465a71.44186 71.44186 0 0 1 71.44186-71.44186h47.627907a71.44186 71.44186 0 0 1 71.441861 71.44186v252.951814zM552.72186 196.465116a47.627907 47.627907 0 0 1 47.485024 44.055814l0.142883 3.572093-0.023814 7.668093h68.393675c22.146977 0 40.340837 17.074605 42.10307 38.816744l0.142883 3.453024v119.903256a23.813953 23.813953 0 0 1-47.461209 2.762418l-0.166698-2.762418-0.023814-114.545117h-64.202418a47.651721 47.651721 0 0 1-42.436465 36.721117l-3.953117 0.166697H342.206512a47.627907 47.627907 0 0 1-46.413396-36.864L250.046512 299.389023v468.587163l217.230883 0.023814a23.813953 23.813953 0 0 1 23.647256 21.027721l0.166698 2.786232a23.813953 23.813953 0 0 1-21.027721 23.647256l-2.786233 0.166698H244.664558c-22.146977 0-40.340837-17.074605-42.10307-38.79293L202.418605 773.381953v-479.374883c0-22.146977 17.074605-40.340837 38.79293-42.10307l3.453023-0.11907 49.914047-0.023814 0.023814-7.668093a47.627907 47.627907 0 0 1 44.055814-47.508837l3.572093-0.11907h210.491534zM702.511628 613.209302h-95.255814v148.956279l48.032744 44.627349L702.511628 762.237023V613.209302z m-245.831442 34.958884a23.813953 23.813953 0 0 1 2.786233 47.461209l-2.786233 0.166698h-147.479814a23.813953 23.813953 0 0 1-2.786232-47.485023l2.786232-0.142884h147.479814z m0-110.615814a23.813953 23.813953 0 0 1 2.786233 47.461209l-2.786233 0.166698h-147.479814a23.813953 23.813953 0 0 1-2.786232-47.485023l2.786232-0.142884h147.479814zM678.697674 506.046512h-47.627907a23.813953 23.813953 0 0 0-23.813953 23.813953v35.72093h95.255814v-35.72093a23.813953 23.813953 0 0 0-18.336744-23.194791l-2.690977-0.476279L678.697674 506.046512z m-185.129674-79.133768a23.813953 23.813953 0 0 1 2.762419 47.485023l-2.762419 0.142884h-184.367628a23.813953 23.813953 0 0 1-2.786232-47.461209l2.786232-0.166698h184.367628z m59.15386-182.819721H342.206512v44.555907h210.491535V244.093023z" fill="#333333" p-id="2239"></path></svg>