<?xml version="1.0" standalone="no"?><!DOCTYPE svg PUBLIC "-//W3C//DTD SVG 1.1//EN" "http://www.w3.org/Graphics/SVG/1.1/DTD/svg11.dtd"><svg t="1675316952828" class="icon" viewBox="0 0 1024 1024" version="1.1" xmlns="http://www.w3.org/2000/svg" p-id="1658" xmlns:xlink="http://www.w3.org/1999/xlink" width="200" height="200"><path d="M653.55581 459.312762a118.759619 118.759619 0 0 1 78.921142 207.481905A175.274667 175.274667 0 0 1 828.952381 823.466667a24.380952 24.380952 0 1 1-48.761905 0 126.634667 126.634667 0 0 0-253.244952 0 24.380952 24.380952 0 1 1-48.761905 0 175.37219 175.37219 0 0 1 96.451048-156.672 118.759619 118.759619 0 0 1 78.921143-207.481905zM553.691429 195.047619a48.761905 48.761905 0 0 1 48.761904 48.761905l-0.024381 7.850666h70.022096c22.674286 0 41.301333 17.481143 43.105523 39.740953l0.146286 3.535238v122.758095a24.380952 24.380952 0 0 1-48.591238 2.828191l-0.170667-2.828191-0.024381-117.272381h-65.731047a48.761905 48.761905 0 0 1-47.494095 37.766095H338.16381a48.761905 48.761905 0 0 1-47.518477-37.741714L243.809524 300.422095v479.744l173.616762 0.024381a24.380952 24.380952 0 0 1 24.210285 21.528381l0.170667 2.852572a24.380952 24.380952 0 0 1-21.528381 24.210285L417.401905 828.952381H238.299429c-22.674286 0-41.301333-17.481143-43.105524-39.716571L195.047619 785.700571v-490.788571c0-22.674286 17.481143-41.301333 39.716571-43.105524l3.535239-0.121905 51.102476-0.024381 0.024381-7.850666a48.761905 48.761905 0 0 1 45.104762-48.64l3.657142-0.121905z m-98.328381 462.457905a24.380952 24.380952 0 0 1 2.852571 48.591238l-2.852571 0.170667h-150.991238a24.380952 24.380952 0 0 1-2.852572-48.615619l2.852572-0.146286h150.991238z m198.217142-149.455238a69.997714 69.997714 0 1 0 0 140.019809 69.997714 69.997714 0 0 0 0-139.995428z m-198.217142 36.205714a24.380952 24.380952 0 0 1 2.852571 48.591238l-2.852571 0.170667h-150.991238a24.380952 24.380952 0 0 1-2.852572-48.615619l2.852572-0.146286h150.991238z m37.766095-113.273905a24.380952 24.380952 0 0 1 2.82819 48.615619l-2.82819 0.146286h-188.757333a24.380952 24.380952 0 0 1-2.852572-48.591238l2.852572-0.170667h188.757333zM553.691429 243.809524H338.16381v45.616762h215.503238V243.809524z" fill="#333333" p-id="1659"></path></svg>