<?xml version="1.0" standalone="no"?><!DOCTYPE svg PUBLIC "-//W3C//DTD SVG 1.1//EN" "http://www.w3.org/Graphics/SVG/1.1/DTD/svg11.dtd"><svg t="1675316935303" class="icon" viewBox="0 0 1024 1024" version="1.1" xmlns="http://www.w3.org/2000/svg" p-id="1513" xmlns:xlink="http://www.w3.org/1999/xlink" width="200" height="200"><path d="M750.139535 183.700837a71.44186 71.44186 0 0 1 71.44186 71.441861v523.906976a71.44186 71.44186 0 0 1-71.44186 71.441861H273.860465a71.44186 71.44186 0 0 1-71.44186-71.441861v-523.906976a71.44186 71.44186 0 0 1 71.44186-71.441861z m-142.883721 47.627907H273.860465a23.813953 23.813953 0 0 0-23.647256 21.051535l-0.166697 2.762419v523.906976a23.813953 23.813953 0 0 0 23.813953 23.813954h333.395349v-571.534884z m142.883721 0h-95.255814v571.534884h95.255814a23.813953 23.813953 0 0 0 23.813953-23.813954v-523.906976a23.813953 23.813953 0 0 0-23.813953-23.813954z m-250.046512 392.930233a23.813953 23.813953 0 0 1 2.786233 47.485023l-2.786233 0.142884h-166.697674a23.813953 23.813953 0 0 1-2.786233-47.46121l2.786233-0.166697h166.697674z m0-142.883721a23.813953 23.813953 0 0 1 2.786233 47.485023l-2.786233 0.142884h-166.697674a23.813953 23.813953 0 0 1-2.786233-47.46121l2.786233-0.166697h166.697674z m0-142.883721a23.813953 23.813953 0 0 1 2.786233 47.485023l-2.786233 0.142884h-166.697674a23.813953 23.813953 0 0 1-2.786233-47.461209l2.786233-0.166698h166.697674z" fill="#333333" p-id="1514"></path></svg>