<?xml version="1.0" standalone="no"?><!DOCTYPE svg PUBLIC "-//W3C//DTD SVG 1.1//EN" "http://www.w3.org/Graphics/SVG/1.1/DTD/svg11.dtd"><svg t="1675316909714" class="icon" viewBox="0 0 1024 1024" version="1.1" xmlns="http://www.w3.org/2000/svg" p-id="1368" xmlns:xlink="http://www.w3.org/1999/xlink" width="200" height="200"><path d="M707.047619 536.380952a146.285714 146.285714 0 1 1 0 292.571429 146.285714 146.285714 0 0 1 0-292.571429zM553.691429 195.047619a48.761905 48.761905 0 0 1 48.615619 45.104762l0.146285 3.657143-0.024381 7.850666h70.022096c22.674286 0 41.301333 17.481143 43.105523 39.740953l0.146286 3.535238v171.52a24.380952 24.380952 0 0 1-48.591238 2.82819l-0.170667-2.82819-0.024381-166.034286h-65.731047a48.786286 48.786286 0 0 1-43.446857 37.595429l-4.047238 0.170666H338.16381a48.761905 48.761905 0 0 1-47.518477-37.741714L243.809524 300.422095v479.744L514.950095 780.190476a24.380952 24.380952 0 0 1 24.210286 21.528381l0.170667 2.852572a24.380952 24.380952 0 0 1-21.528381 24.210285L514.925714 828.952381H238.299429c-22.674286 0-41.301333-17.481143-43.105524-39.716571L195.047619 785.700571v-490.788571c0-22.674286 17.481143-41.301333 39.716571-43.105524l3.535239-0.121905 51.102476-0.024381 0.024381-7.850666a48.761905 48.761905 0 0 1 45.104762-48.64l3.657142-0.121905h215.503239zM707.047619 585.142857a97.52381 97.52381 0 1 0 0 195.047619 97.52381 97.52381 0 0 0 0-195.047619z m46.884571 73.142857a24.380952 24.380952 0 0 1 2.852572 48.591238l-2.852572 0.170667h-93.769142a24.380952 24.380952 0 0 1-2.852572-48.591238l2.852572-0.170667h93.769142z m-298.569142-0.78019a24.380952 24.380952 0 0 1 2.852571 48.591238l-2.852571 0.170667h-150.991238a24.380952 24.380952 0 0 1-2.852572-48.615619l2.852572-0.146286h150.991238z m0-113.249524a24.380952 24.380952 0 0 1 2.852571 48.591238l-2.852571 0.170667h-150.991238a24.380952 24.380952 0 0 1-2.852572-48.615619l2.852572-0.146286h150.991238z m37.766095-113.273905a24.380952 24.380952 0 0 1 2.82819 48.615619l-2.82819 0.146286h-188.757333a24.380952 24.380952 0 0 1-2.852572-48.591238l2.852572-0.170667h188.757333zM553.691429 243.809524H338.16381v45.616762h215.503238V243.809524z" fill="#333333" p-id="1369"></path></svg>