<?xml version="1.0" standalone="no"?><!DOCTYPE svg PUBLIC "-//W3C//DTD SVG 1.1//EN" "http://www.w3.org/Graphics/SVG/1.1/DTD/svg11.dtd"><svg t="1675316886469" class="icon" viewBox="0 0 1024 1024" version="1.1" xmlns="http://www.w3.org/2000/svg" p-id="1223" xmlns:xlink="http://www.w3.org/1999/xlink" width="200" height="200"><path d="M464.967442 279.813953a23.813953 23.813953 0 0 1 2.762418 47.46121l-2.762418 0.166697H273.860465a23.813953 23.813953 0 0 0-23.647256 21.027721L250.046512 351.255814v428.651163a23.813953 23.813953 0 0 0 21.027721 23.647256l2.786232 0.166697h381.023256a23.813953 23.813953 0 0 0 23.647256-21.027721L678.697674 779.906977V529.574698a23.813953 23.813953 0 0 1 47.46121-2.786233l0.166697 2.786233V779.906977a71.44186 71.44186 0 0 1-67.250604 71.32279L654.883721 851.348837H273.860465a71.44186 71.44186 0 0 1-71.322791-67.250604L202.418605 779.906977v-428.651163a71.44186 71.44186 0 0 1 67.250604-71.322791L273.860465 279.813953h191.106977z m127.690418 390.239256a23.813953 23.813953 0 0 1 2.786233 47.46121l-2.786233 0.166697h-285.767441a23.813953 23.813953 0 0 1-2.786233-47.461209l2.786233-0.166698h285.767441z m-47.627907-119.069767a23.813953 23.813953 0 0 1 2.786233 47.461209l-2.786233 0.166698h-238.139534a23.813953 23.813953 0 0 1-2.786233-47.461209l2.786233-0.166698h238.139534z m-25.623813-253.428093a132.096 132.096 0 1 1 229.876093 117.831442l55.677023 64.226232a23.813953 23.813953 0 0 1-34.053954 33.172837l-1.952744-1.976558-55.986605-64.631069a132.096 132.096 0 0 1-193.559813-148.622884z m-45.818047 134.358325a23.813953 23.813953 0 0 1 2.786233 47.46121l-2.786233 0.166697h-166.697674a23.813953 23.813953 0 0 1-2.786233-47.461209l2.786233-0.166698h166.697674z m195.274419-181.771907a84.468093 84.468093 0 1 0-43.722419 163.17321 84.468093 84.468093 0 0 0 43.722419-163.17321z" fill="#333333" p-id="1224"></path></svg>